<svg width="192" height="192" viewBox="0 0 192 192" fill="none" xmlns="http://www.w3.org/2000/svg">
  <!-- Background -->
  <rect width="192" height="192" rx="24" fill="#1a1a1a"/>
  
  <!-- Main container -->
  <rect x="12" y="12" width="168" height="168" rx="12" fill="#ffcc00"/>
  
  <!-- Grid background -->
  <rect x="24" y="24" width="144" height="144" rx="6" fill="#1a1a1a" fill-opacity="0.1"/>
  
  <!-- Tiles -->
  <!-- Row 1 -->
  <rect x="30" y="30" width="30" height="30" rx="3" fill="#1a1a1a" fill-opacity="0.3"/>
  <rect x="66" y="30" width="30" height="30" rx="3" fill="#1a1a1a" fill-opacity="0.5"/>
  <rect x="102" y="30" width="30" height="30" rx="3" fill="#1a1a1a" fill-opacity="0.7"/>
  <rect x="138" y="30" width="30" height="30" rx="3" fill="#1a1a1a" fill-opacity="0.9"/>
  
  <!-- Row 2 -->
  <rect x="30" y="66" width="30" height="30" rx="3" fill="#1a1a1a" fill-opacity="0.5"/>
  <rect x="66" y="66" width="30" height="30" rx="3" fill="#1a1a1a" fill-opacity="0.9"/>
  <text x="81" y="85" font-family="-apple-system, BlinkMacSystemFont, 'Segoe UI', Arial, sans-serif" font-size="12" font-weight="bold" fill="#ffcc00" text-anchor="middle" dominant-baseline="middle">2</text>
  <rect x="102" y="66" width="30" height="30" rx="3" fill="#1a1a1a" fill-opacity="0.7"/>
  <rect x="138" y="66" width="30" height="30" rx="3" fill="#1a1a1a" fill-opacity="0.3"/>
  
  <!-- Row 3 -->
  <rect x="30" y="102" width="30" height="30" rx="3" fill="#1a1a1a" fill-opacity="0.7"/>
  <rect x="66" y="102" width="30" height="30" rx="3" fill="#1a1a1a" fill-opacity="0.95"/>
  <text x="81" y="117" font-family="-apple-system, BlinkMacSystemFont, 'Segoe UI', Arial, sans-serif" font-size="7" font-weight="bold" fill="#ffcc00" text-anchor="middle" dominant-baseline="middle">2048</text>
  <rect x="102" y="102" width="30" height="30" rx="3" fill="#1a1a1a" fill-opacity="0.5"/>
  <rect x="138" y="102" width="30" height="30" rx="3" fill="#1a1a1a" fill-opacity="0.3"/>
  
  <!-- Row 4 -->
  <rect x="30" y="138" width="30" height="30" rx="3" fill="#1a1a1a" fill-opacity="0.9"/>
  <rect x="66" y="138" width="30" height="30" rx="3" fill="#1a1a1a" fill-opacity="0.7"/>
  <rect x="102" y="138" width="30" height="30" rx="3" fill="#1a1a1a" fill-opacity="0.5"/>
  <rect x="138" y="138" width="30" height="30" rx="3" fill="#1a1a1a" fill-opacity="0.3"/>
  
  <!-- Shine effect -->
  <defs>
    <linearGradient id="shine" x1="0%" y1="0%" x2="100%" y2="100%">
      <stop offset="0%" style="stop-color:#ffffff;stop-opacity:0.2" />
      <stop offset="100%" style="stop-color:#ffffff;stop-opacity:0" />
    </linearGradient>
  </defs>
  <rect x="12" y="12" width="168" height="168" rx="12" fill="url(#shine)"/>
</svg>
